<svg xmlns="http://www.w3.org/2000/svg" viewBox="0 0 512 512" style="enable-background:new 0 0 512 512" xml:space="preserve"><path d="M385.501 71.229h-62.742V16.696c0-9.22-7.475-16.696-16.696-16.696H205.937c-9.22 0-16.696 7.475-16.696 16.696V71.23h-62.742c-9.22 0-16.696 7.475-16.696 16.696v407.379c0 9.22 7.475 16.696 16.696 16.696h259.002c9.22 0 16.696-7.475 16.696-16.696V87.925c0-9.221-7.476-16.696-16.696-16.696zm-30.359 208.664-93.93 159.732c-8.867 15.083-32.062 8.028-31.06-9.421l5.845-101.708h-64.749c-12.888 0-20.932-14.037-14.392-25.159l93.93-159.732c8.836-15.031 32.062-8.026 31.059 9.421L276 254.735h64.749c12.889-.001 20.933 14.036 14.393 25.158z"/></svg>