<svg xml:space="preserve" width="48" height="48" xmlns="http://www.w3.org/2000/svg"><path d="M36.14 6.678h-5.88V1.565A1.567 1.567 0 0 0 28.693 0h-9.386c-.865 0-1.566.7-1.566 1.565v5.113H11.86c-.864 0-1.565.7-1.565 1.565v38.192c0 .864.7 1.565 1.565 1.565h24.282c.864 0 1.565-.7 1.565-1.565V8.243c0-.865-.7-1.565-1.565-1.565zM33.296 26.24 24.49 41.215c-.832 1.414-3.006.752-2.912-.883l.548-9.536h-6.07c-1.209 0-1.963-1.316-1.35-2.358l8.806-14.975c.829-1.41 3.006-.752 2.912.883l-.548 9.535h6.07c1.209 0 1.963 1.316 1.35 2.359z" style="stroke-width:.0937498;fill:#fff;fill-opacity:1"/></svg>