<svg width="24" height="24" xmlns="http://www.w3.org/2000/svg"><path fill-rule="evenodd" d="M17.618 19.032A8.957 8.957 0 0 1 13 20.945V23h-2v-2.055A9.004 9.004 0 0 1 3.055 13H1v-2h2.055a8.957 8.957 0 0 1 1.913-4.618L1.293 2.707l1.414-1.414 20 20-1.414 1.414-3.675-3.675ZM6.394 7.808a7 7 0 0 0 9.799 9.799l-2.161-2.16a4 4 0 0 1-5.478-5.478l-2.16-2.161Zm3.674 3.674a2.003 2.003 0 0 0 2.45 2.45l-2.45-2.45Zm10.046 4.417-1.527-1.526a7 7 0 0 0-8.96-8.96L8.1 3.886a8.94 8.94 0 0 1 2.9-.831V1h2v2.055A9.004 9.004 0 0 1 20.945 11H23v2h-2.055a8.94 8.94 0 0 1-.831 2.9Z" style="fill:red;fill-opacity:1"/></svg>