<svg width="65.644" height="65.644" xml:space="preserve" xmlns="http://www.w3.org/2000/svg"><path d="M18.627 50.494c-2.461 0-4.859.253-7.206.652-.163 4.02-.183 9.874 1.743 12.148 2.712 3.203 8.699 3.203 11.106-.444 2.387-3.62.804-8.826.136-11.924-1.897-.252-3.814-.432-5.779-.432zm1.556-36.477c-6.204.22-12.482 14.743-10.804 22.19.604 2.67 2.191 8.176 2.191 11.388 0 .39-.03 1-.065 1.735 2.327-.374 4.694-.622 7.124-.622 1.858 0 3.68.15 5.478.37-.178-1.739-.229-4.429.386-7.18.829-3.72 2.569-7.59 3.284-9.562 1.457-4.012-1.39-18.539-7.594-18.319zm26.834 23.045c-2.01 0-3.972.188-5.906.452-.718 3.144-1.971 7.934.263 11.32 2.406 3.647 8.395 3.647 11.106.445 1.832-2.165 1.902-7.582 1.766-11.565-2.354-.396-4.761-.652-7.229-.652zM45.461.002c-6.205-.22-9.052 14.307-7.592 18.321.717 1.97 2.455 5.842 3.283 9.563.687 3.076.545 6.098.319 7.77 1.82-.226 3.661-.38 5.545-.38 2.44 0 4.815.248 7.151.627-.048-1.009-.094-1.832-.094-2.324 0-3.212 1.588-8.719 2.192-11.388C57.943 14.748 51.664.221 45.461.002z" style="fill:#00b0b9;fill-opacity:1"/></svg>