<svg width="48" height="48" xml:space="preserve" xmlns="http://www.w3.org/2000/svg"><path d="M13.62 36.922c-1.8 0-3.553.185-5.269.477-.119 2.94-.134 7.22 1.275 8.883 1.983 2.342 6.36 2.342 8.12-.325 1.746-2.647.589-6.453.1-8.719-1.387-.184-2.789-.316-4.226-.316zm1.138-26.672c-4.536.16-9.127 10.78-7.9 16.226.442 1.952 1.602 5.978 1.602 8.327 0 .285-.022.73-.047 1.268 1.701-.273 3.432-.455 5.209-.455 1.358 0 2.69.11 4.005.271-.13-1.272-.167-3.239.283-5.25.606-2.72 1.878-5.55 2.401-6.992 1.065-2.934-1.016-13.556-5.553-13.395zM34.38 27.1c-1.47 0-2.905.138-4.319.331-.525 2.3-1.441 5.802.192 8.278 1.76 2.666 6.139 2.666 8.121.325 1.34-1.583 1.391-5.544 1.292-8.457-1.722-.29-3.482-.476-5.286-.476zM33.242.003c-4.537-.161-6.62 10.461-5.552 13.396.525 1.44 1.796 4.272 2.401 6.993.502 2.25.399 4.459.233 5.682 1.331-.166 2.677-.278 4.055-.278 1.784 0 3.52.181 5.229.458-.035-.738-.069-1.34-.069-1.7 0-2.348 1.161-6.375 1.603-8.326 1.227-5.443-3.364-16.065-7.9-16.225Z" style="fill:#00b0b9;fill-opacity:1;stroke-width:.731218"/></svg>